# xmcd CD database file
# Copyright (C) 1995-1998 Ti Kan
#
# Track frame offsets:
#	150
#	16110
#	32675
#	49957
#	68137
#	83735
#	97300
#	113635
#	128822
#	139667
#	150097
#	163995
#	178532
#	192062
#
# Disc length: 2791 seconds
#
# Revision: 5
# Processed by: cddbd v1.4PL0 Copyright (c) Steve Scherf et al.
# Submitted via: CDex 1.30Release
#
DISCID=af0ae50e
DTITLE=FRANK AGUIAR - Um Show De Forró - Vol.V
DYEAR=1900
DGENRE=Country
TTITLE0=O Hino Das Loiras
TTITLE1=Morango Do Nordeste
TTITLE2=Perguntas Sem Resposta/Vou Matar Você Na Unha
TTITLE3=Balançando O Esqueleto/Lágrima De Crocodilo/Chorando Se Foi
TTITLE4=Não Sou Mais Um Bucho D'Água
TTITLE5=Forró De Camelô
TTITLE6=Ana Júlia
TTITLE7=Pau Nas Coisas/Meu Dengo
TTITLE8=Capô De Fusca
TTITLE9=Dançando Com Pom Pom
TTITLE10=Na Vaquejada e No Rodeio/Peão Gamado
TTITLE11=Tudo Por Amor/Raios De Neon
TTITLE12=Indiferença
TTITLE13=Cascalho Pra Gastar/No Umbiguinho Dela
EXTD=ID3G:   2
EXTT0=
EXTT1=
EXTT2=
EXTT3=
EXTT4=
EXTT5=
EXTT6=
EXTT7=
EXTT8=
EXTT9=
EXTT10=
EXTT11=
EXTT12=
EXTT13=
PLAYORDER=
